<?xml version="1.0" standalone="no"?><!DOCTYPE svg PUBLIC "-//W3C//DTD SVG 1.1//EN" "http://www.w3.org/Graphics/SVG/1.1/DTD/svg11.dtd"><svg t="1690361705375" class="icon" viewBox="0 0 1024 1024" version="1.1" xmlns="http://www.w3.org/2000/svg" p-id="9470" width="12" height="12" xmlns:xlink="http://www.w3.org/1999/xlink"><path d="M771.22174506 571.42710064c-7.96379107-103.68408156-56.23808039-168.65856987-98.82569321-225.99515145C632.96136711 292.35086988 598.90241111 246.51256375 598.90241111 178.89434113c0-5.43140062-3.04158428-10.39570064-7.86466804-12.88464067-4.8380203-2.50387591-10.65097648-2.09380509-15.04905357 1.10257411-63.96017428 45.76769767-117.32640187 122.90580877-135.96832745 196.50671976-12.94166977 51.24119221-14.65391931 108.84662764-14.89425862 146.89223139-59.06648273-12.61578614-72.44673787-100.96838093-72.5879541-101.93109666a14.55615415 14.55615415 0 0 0-7.53878439-10.74874232c-4.11564386-2.14947702-8.95366417-2.30562983-13.12633783-0.24033928-3.09725623 1.49906692-76.0260312 38.55479759-80.26931266 186.50751056-0.29736908 4.92220677-0.31094777 9.85935011-0.31094776 14.79513557 0 143.73794606 116.95842506 260.68958105 260.70723331 260.68958171 0.19824606 0.01357869 0.41007081 0.04209323 0.57980229 0h0.18330952C656.15887914 859.17184663 772.70723331 742.37772166 772.70723331 598.89369359c0-7.22783661-1.48548823-27.46659364-1.48548822-27.46659295zM512 830.61761543c-47.92124828 0-86.90241111-41.52441623-86.90241111-92.56736236 0-1.73940622-0.01357869-3.49374832 0.11270176-5.64322535 0.57980229-21.52599852 4.66828881-36.22065322 9.15191019-45.99445897 8.40237711 18.04718675 23.42291545 34.63739978 47.82212527 34.63740048a14.47468273 14.47468273 0 0 0 14.4841878-14.48282994c0-20.62031257 0.42500734-44.40984768 5.5590382-65.88017494 4.56916578-19.03705915 15.4876389-39.29075273 29.32141662-55.52656759 6.15241918 21.07383447 18.14766763 38.12979093 29.85912568 54.77703444 16.76130238 23.81669179 34.08747062 48.44130506 37.12905486 90.43282121 0.18330951 2.48893935 0.36797757 4.99281526 0.36797757 7.68000066-0.00271575 51.04158827-38.98387855 92.56736235-86.90512684 92.56736236z" fill="#FFA200" p-id="9471"></path></svg>